# xmcd
#
# Track frame offsets: 
#        150
#        22185
#        49345
#        77032
#        106840
#        123572
#        145377
#        165202
#        188362
#
# Disc length: 2981 seconds
#
# Revision: 0
# Processed by: cddbd v1.5.1PL2 Copyright (c) Steve Scherf et al.
# Submitted via: ExactAudioCopy v0.95b3
#
DISCID=6f0ba309
DTITLE=Paul Mayasich - Where You Been?
DYEAR=2002
DGENRE=Blues
TTITLE0=Gimmie a Break
TTITLE1=Back Slidin'
TTITLE2=Sadie
TTITLE3=Somewhere In the Night
TTITLE4=Jelly Smackin' Mama
TTITLE5=Love For Money
TTITLE6=Mile After Mile
TTITLE7=Prisoner
TTITLE8=This World
EXTD=
EXTT0=
EXTT1=
EXTT2=
EXTT3=
EXTT4=
EXTT5=
EXTT6=
EXTT7=
EXTT8=
PLAYORDER=
